<svg xmlns="http://www.w3.org/2000/svg" viewBox="0 0 825.15 186.8"><defs><style>.cls-1{fill:#fff;}.cls-2{fill:maroon;}</style></defs><title>CI_DarkBg_Horizontal1</title><g id="Layer_2" data-name="Layer 2"><g id="Layer_1-2" data-name="Layer 1"><path class="cls-1" d="M511.46,77.91q-25.66,0-25.66-28.79,0-14.31,6.7-21.6t19-7.28a24.19,24.19,0,0,1,10.7,2.35A20.76,20.76,0,0,1,530,29a3,3,0,0,1,.57,1.73,2.65,2.65,0,0,1-4.77,1.56,16.65,16.65,0,0,0-6-5,18,18,0,0,0-8.27-1.94q-9.61,0-14.76,5.93t-5.14,17.85q0,12.42,5,18.06t14.89,5.63a19.8,19.8,0,0,0,8.15-1.72,14.76,14.76,0,0,0,6.17-5A2.41,2.41,0,0,1,527.92,65a2.5,2.5,0,0,1,1.89.78,2.62,2.62,0,0,1,.74,1.85,2.74,2.74,0,0,1-.49,1.56,18.9,18.9,0,0,1-7.82,6.34A25.13,25.13,0,0,1,511.46,77.91Z"/><path class="cls-1" d="M557.37,76.6a2.79,2.79,0,0,1-4,0,2.7,2.7,0,0,1-.82-2V51L536.06,25a2.74,2.74,0,0,1-.41-1.48,2.8,2.8,0,0,1,2.8-2.79,2.65,2.65,0,0,1,2.38,1.31l14.56,23.37L570,22.05a2.64,2.64,0,0,1,2.38-1.31,2.7,2.7,0,0,1,2,.82,2.82,2.82,0,0,1,.41,3.45L558.19,51V74.62A2.7,2.7,0,0,1,557.37,76.6Z"/><path class="cls-1" d="M604.76,77.91q-25.68,0-25.67-28.79,0-14.31,6.7-21.6t19-7.28a24.17,24.17,0,0,1,10.69,2.35A20.68,20.68,0,0,1,623.27,29a3,3,0,0,1,.57,1.73,2.53,2.53,0,0,1-2.63,2.63,2.56,2.56,0,0,1-2.14-1.07,16.65,16.65,0,0,0-6.05-5,18,18,0,0,0-8.26-1.94q-9.63,0-14.77,5.93t-5.14,17.85q0,12.42,5,18.06t14.9,5.63a19.76,19.76,0,0,0,8.14-1.72,14.76,14.76,0,0,0,6.17-5A2.43,2.43,0,0,1,621.21,65a2.48,2.48,0,0,1,1.89.78,2.57,2.57,0,0,1,.74,1.85,2.74,2.74,0,0,1-.49,1.56,18.9,18.9,0,0,1-7.82,6.34A25.12,25.12,0,0,1,604.76,77.91Z"/><path class="cls-1" d="M639.56,71.5H662.1A2.67,2.67,0,0,1,664,76a2.58,2.58,0,0,1-1.89.74H636.76A2.8,2.8,0,0,1,634,74V23.53a2.8,2.8,0,0,1,5.6,0Z"/><path class="cls-1" d="M679.29,23.53V74.62a2.7,2.7,0,0,1-.82,2,2.79,2.79,0,0,1-4,0,2.7,2.7,0,0,1-.82-2V23.53a2.8,2.8,0,0,1,5.59,0Z"/><path class="cls-1" d="M715.16,77.91q-25.67,0-25.67-28.79,0-14.31,6.71-21.6t19-7.28a24.14,24.14,0,0,1,10.69,2.35A20.68,20.68,0,0,1,733.67,29a3,3,0,0,1,.57,1.73,2.53,2.53,0,0,1-2.63,2.63,2.56,2.56,0,0,1-2.14-1.07,16.61,16.61,0,0,0-6-5,18.07,18.07,0,0,0-8.27-1.94q-9.63,0-14.77,5.93t-5.14,17.85q0,12.42,5,18.06t14.89,5.63a19.76,19.76,0,0,0,8.14-1.72,14.7,14.7,0,0,0,6.17-5A2.44,2.44,0,0,1,731.61,65a2.48,2.48,0,0,1,1.89.78,2.57,2.57,0,0,1,.74,1.85,2.74,2.74,0,0,1-.49,1.56,18.87,18.87,0,0,1-7.81,6.34A25.19,25.19,0,0,1,715.16,77.91Z"/><path class="cls-1" d="M774.06,60.39H751.11l-6,15.06a2.82,2.82,0,0,1-5.51-.83,2.8,2.8,0,0,1,.25-1.23l20.07-50.76a2.75,2.75,0,0,1,2.64-1.89,2.8,2.8,0,0,1,2.71,1.89l20.07,50.76a3,3,0,0,1,.25,1.23,2.7,2.7,0,0,1-.82,2,2.84,2.84,0,0,1-2.06.82A2.7,2.7,0,0,1,780,75.53Zm-1.72-5.1-9.79-25.17-9.71,25.17Z"/><path class="cls-1" d="M800,71.5h22.54a2.52,2.52,0,0,1,1.89.74,2.63,2.63,0,0,1-1.89,4.52H797.18a2.66,2.66,0,0,1-2-.82,2.7,2.7,0,0,1-.83-2V23.53a2.7,2.7,0,0,1,.83-2,2.78,2.78,0,0,1,3.94,0,2.7,2.7,0,0,1,.83,2Z"/><path class="cls-1" d="M494.35,113.52V164.6a2.8,2.8,0,1,1-5.59,0V113.52a2.8,2.8,0,1,1,5.59,0Z"/><path class="cls-1" d="M541.57,111.5a2.69,2.69,0,0,1,3.79,0,2.56,2.56,0,0,1,.82,1.93V164.6a2.8,2.8,0,0,1-2.8,2.8,2.79,2.79,0,0,1-2.3-1.15l-29-43.69v42.13a2.8,2.8,0,0,1-2.71,2.71,2.56,2.56,0,0,1-1.89-.82,2.61,2.61,0,0,1-.83-1.89V113.43a2.56,2.56,0,0,1,.83-1.93,2.64,2.64,0,0,1,1.89-.78,2.59,2.59,0,0,1,2.22,1.15l29.12,43.77V113.43A2.56,2.56,0,0,1,541.57,111.5Z"/><path class="cls-1" d="M588.38,121.82a16.43,16.43,0,0,0-13.32-6.49c-4.06,0-7.07.85-9,2.55a8.15,8.15,0,0,0-2.92,6.41,7.39,7.39,0,0,0,3.21,6.13,25.46,25.46,0,0,0,7.77,3.87q4.56,1.44,9.13,3.21a20,20,0,0,1,7.78,5.34,13.12,13.12,0,0,1,3.21,9.09c0,5.16-1.71,9.11-5.1,11.85s-8.29,4.11-14.65,4.11a23.42,23.42,0,0,1-11.8-2.92,17.88,17.88,0,0,1-7.37-7.19,3.46,3.46,0,0,1-.41-1.48,2.64,2.64,0,0,1,.74-1.86,2.51,2.51,0,0,1,1.89-.78,2.59,2.59,0,0,1,2.31,1.32q4.77,7.82,14.64,7.81,6.82,0,10.49-2.75t3.66-8.11a8.49,8.49,0,0,0-2.3-6,13.9,13.9,0,0,0-5.76-3.66c-2.3-.8-4.8-1.67-7.49-2.63s-5.18-1.94-7.48-2.92a13.54,13.54,0,0,1-5.76-4.69A13.77,13.77,0,0,1,562,114.22q4.49-4,13-4a23.15,23.15,0,0,1,10.36,2.27,18.05,18.05,0,0,1,7.24,6.21,2.75,2.75,0,0,1,.5,1.56,2.54,2.54,0,0,1-.79,1.85,2.52,2.52,0,0,1-1.85.78A2.57,2.57,0,0,1,588.38,121.82Z"/><path class="cls-1" d="M610,113.52V164.6a2.8,2.8,0,1,1-5.59,0V113.52a2.8,2.8,0,1,1,5.59,0Z"/><path class="cls-1" d="M645.89,162.79q10,0,15.3-6.58V144.28H647.45a2.53,2.53,0,0,1-2.55-2.55,2.53,2.53,0,0,1,2.55-2.55h16.62a2.52,2.52,0,0,1,1.77.74,2.41,2.41,0,0,1,.78,1.81v14.4a4.31,4.31,0,0,1-1.07,2.72,24.72,24.72,0,0,1-19.66,9q-25.67,0-25.67-28.79,0-14.31,6.71-21.59t19-7.29a24.28,24.28,0,0,1,10.69,2.35A20.54,20.54,0,0,1,664.4,119a3,3,0,0,1,.58,1.72,2.55,2.55,0,0,1-2.64,2.64,2.6,2.6,0,0,1-2.14-1.07,16.64,16.64,0,0,0-6-5,18,18,0,0,0-8.31-1.93q-9.63,0-14.77,5.92T626,139.1q0,12.42,5,18.06T645.89,162.79Z"/><path class="cls-1" d="M712,140.91H683.32V164.6a2.8,2.8,0,1,1-5.59,0V113.52a2.8,2.8,0,1,1,5.59,0v22.29H712V113.52a2.73,2.73,0,0,1,.82-2,2.81,2.81,0,0,1,4.78,2V164.6a2.71,2.71,0,0,1-.83,2,2.79,2.79,0,0,1-4,0,2.73,2.73,0,0,1-.82-2Z"/><path class="cls-1" d="M743.46,116.64H728.73a2.51,2.51,0,0,1-1.89-.78,2.68,2.68,0,0,1,0-3.7,2.51,2.51,0,0,1,1.89-.78h35a2.63,2.63,0,0,1,0,5.26H749.05v48a2.8,2.8,0,1,1-5.59,0Z"/><path class="cls-1" d="M804.83,121.82a16.43,16.43,0,0,0-13.32-6.49c-4.06,0-7.07.85-9,2.55a8.15,8.15,0,0,0-2.92,6.41,7.38,7.38,0,0,0,3.2,6.13,25.51,25.51,0,0,0,7.78,3.87q4.56,1.44,9.13,3.21a20.09,20.09,0,0,1,7.78,5.34,13.16,13.16,0,0,1,3.2,9.09q0,7.74-5.1,11.85t-14.64,4.11A23.48,23.48,0,0,1,779.12,165a17.85,17.85,0,0,1-7.36-7.19,3.46,3.46,0,0,1-.41-1.48,2.64,2.64,0,0,1,.74-1.86,2.48,2.48,0,0,1,1.89-.78,2.59,2.59,0,0,1,2.31,1.32q4.77,7.82,14.64,7.81,6.83,0,10.49-2.75t3.66-8.11a8.49,8.49,0,0,0-2.3-6,13.9,13.9,0,0,0-5.76-3.66c-2.31-.8-4.8-1.67-7.49-2.63s-5.18-1.94-7.49-2.92a13.58,13.58,0,0,1-5.75-4.69,13.77,13.77,0,0,1,2.18-17.81q4.47-4,13-4a23.18,23.18,0,0,1,10.36,2.27,18.12,18.12,0,0,1,7.24,6.21,2.74,2.74,0,0,1,.49,1.56,2.66,2.66,0,0,1-2.63,2.63A2.56,2.56,0,0,1,804.83,121.82Z"/><path class="cls-1" d="M336.06,186.8c-44.86,0-79.64-34.91-110.32-65.72L221,116.3l-4.89-4.89-8.47,8.47c-32.83,32.9-66.78,66.92-116.92,66.92-25.63,0-48.78-9.31-65.19-26.2S0,119.81,0,93.4A92.17,92.17,0,0,1,27.13,28c18-18.08,42.5-28,69-28C141,0,175.74,34.91,206.42,65.72l4.77,4.78,4.89,4.89,8.47-8.47C257.39,34,291.33,0,341.48,0c53.39,0,90.69,38.41,90.69,93.4A92.13,92.13,0,0,1,405,158.76C387,176.84,362.54,186.8,336.06,186.8Zm2.71-160c-40.45,0-72.53,33-98.31,59.45l-7.18,7.37,5.22,4.82c4.41,4.06,8.8,8.39,13.46,13,23.1,22.74,49.29,48.51,84.77,48.51A66.64,66.64,0,0,0,403.3,93.4C403.3,54.83,376.16,26.84,338.77,26.84Zm-243.34,0A66.64,66.64,0,0,0,28.87,93.4C28.87,132,56,160,93.4,160c40.45,0,72.53-33,98.3-59.45l7.18-7.37-5.22-4.82c-4.4-4.06-8.8-8.39-13.45-13C157.1,52.61,130.91,26.84,95.43,26.84Z"/><path class="cls-2" d="M92,177.28c-21.94,0-42.11-8-57.11-22.7C19,139,10.14,116.93,10.56,94a85.73,85.73,0,0,1,25-59.23A82.86,82.86,0,0,1,94.62,10.19V17C52.1,17,18.17,50.86,17.36,94.1c-.39,21.1,7.72,41.37,22.25,55.62s34.17,21.51,55.56,20.69l.26,6.8C94.27,177.26,93.11,177.28,92,177.28Z"/><path class="cls-2" d="M341,177.15l-.83-6.75c44.94-5.58,72-33.47,74.24-76.54,1.69-32.38-18.63-61.76-50.55-73.11l2.28-6.41c34.78,12.37,56.91,44.47,55.06,79.88-1.22,23.45-9.11,42.7-23.47,57.21C384,165.36,364.34,174.25,341,177.15Z"/><path class="cls-2" d="M355.39,18.27a66.18,66.18,0,0,0-14.91-1.92l.21-6.8a72.79,72.79,0,0,1,16.23,2.09Z"/></g></g></svg>